#!OML:ASF E:\emotionWalksFemale\Project 1\Capture day 1\Session 1\Female1.ASF
:FULLY-SPECIFIED
:DEGREES
2036
root 10.9821 15.2535 -11.5264 -3.78885 3.78248 3.81058
lowerback 7.47503 -0.425007 -3.93335
upperback -2.65425 -0.840039 2.00754
thorax -6.90954 -0.190398 4.4444
lowerneck -7.51243 -7.75168 -7.28593
upperneck 33.4101 -17.496 20.5335
head 15.96 -6.26167 7.2802
rclavicle 1.2921e-015 3.18055e-015
rhumerus -39.2265 1.35285 -83.2003
rradius 31.2752
rwrist 18.0907
rhand -8.11656 -50.0947
rfingers 7.12502
rthumb 17.7967 -79.3003
lclavicle 1.2921e-015 3.18055e-015
lhumerus -34.75 2.06447 89.4748
lradius 37.9201
lwrist -7.98117
lhand -7.14337 -35.1203
lfingers 7.12502
lthumb 18.7329 -6.00228
rfemur -27.3539 7.83066 19.1198
rtibia 39.665
rfoot -16.285 -19.5059
rtoes -12.5168
lfemur 1.02599 -12.2143 -35.2743
ltibia 26.0546
lfoot -22.351 9.39487
ltoes -9.32806
2037
root 10.9761 15.2491 -11.4535 -3.68272 3.79432 3.7931
lowerback 7.54202 -0.438868 -3.95161
upperback -2.64054 -0.858731 2.068
thorax -6.93072 -0.19692 4.52279
lowerneck -7.69052 -7.73241 -7.3057
upperneck 33.6163 -17.4287 20.3193
head 16.0613 -6.23595 7.20933
rclavicle -4.07509e-015 -1.11319e-014
rhumerus -39.2346 1.48083 -83.1252
rradius 31.1932
rwrist 17.9235
rhand -8.47448 -49.6099
rfingers 7.12502
rthumb 17.4522 -78.8464
lclavicle -4.07509e-015 -1.11319e-014
lhumerus -34.6791 2.44617 89.4102
lradius 37.0274
lwrist -8.63777
lhand -6.77069 -35.1509
lfingers 7.12502
lthumb 19.0913 -6.06791
rfemur -27.4164 8.56889 18.9793
rtibia 38.2257
rfoot -16.3035 -19.7536
rtoes -11.9855
lfemur 1.13947 -12.0461 -35.2126
ltibia 26.1476
lfoot -22.5795 9.04978
ltoes -6.91975
2038
root 10.9681 15.2464 -11.3816 -3.54693 3.93019 3.8145
lowerback 7.58759 -0.489612 -3.98472
upperback -2.67253 -0.931996 2.06682
thorax -6.98295 -0.229374 4.55172
lowerneck -7.5509 -7.69296 -7.28861
upperneck 33.6341 -17.3312 20.2204
head 15.9923 -6.20993 7.1817
rclavicle -1.39149e-015 -7.95139e-016
rhumerus -39.2569 1.42812 -83.0131
rradius 31.0767
rwrist 18.1323
rhand -7.7729 -49.6658
rfingers 7.12502
rthumb 18.1273 -78.8411
lclavicle -1.39149e-015 -7.95139e-016
lhumerus -34.7554 2.62801 89.3028
lradius 36.24
lwrist -9.20807
lhand -6.4568 -34.652
lfingers 7.12502
lthumb 19.3932 -5.59905
rfemur -27.4727 9.26592 18.7518
rtibia 36.8386
rfoot -16.3748 -20.1875
rtoes -11.8222
lfemur 1.2244 -11.9314 -35.1743
ltibia 26.2515
lfoot -22.8075 8.67733
ltoes -5.55083
2039
root 10.9624 15.2437 -11.312 -3.39005 4.04573 3.841
lowerback 7.47945 -0.504772 -3.98889
upperback -2.68926 -0.951083 2.03601
thorax -6.93674 -0.24039 4.52145
lowerneck -7.07978 -7.63547 -7.28643
upperneck 33.435 -17.2168 20.3147
head 15.7583 -6.18944 7.24048
rclavicle 1.5207e-014 1.66979e-014
rhumerus -39.3629 1.1122 -82.7714
rradius 31.0051
rwrist 19.0614
rhand -6.69083 -49.9635
rfingers 7.12502
rthumb 19.1681 -79.0389
lclavicle 1.5207e-014 1.66979e-014
lhumerus -34.942 2.766 89.2263
lradius 35.7481
lwrist -9.60178
lhand -5.37384 -33.6747
lfingers 7.12502
lthumb 20.4342 -4.72996
rfemur -27.5216 9.90331 18.52
rtibia 35.4836
rfoot -16.6069 -20.7056
rtoes -11.2415
lfemur 1.27338 -11.7564 -35.1445
ltibia 26.393
lfoot -22.9628 8.5237
ltoes -6.20386
2040
root 10.9547 15.2374 -11.239 -3.22925 4.06699 3.81846
lowerback 7.37288 -0.495363 -3.95998
upperback -2.70505 -0.93215 2.03194
thorax -6.89452 -0.233405 4.49592
lowerneck -6.78343 -7.62126 -7.30389
upperneck 33.3877 -17.1699 20.3082
head 15.6495 -6.19297 7.25301
rclavicle 5.46658e-015 -1.59028e-014
rhumerus -39.4389 0.858527 -82.5885
rradius 30.975
rwrist 19.5421
rhand -6.02309 -50.1681
rfingers 7.12502
rthumb 19.8102 -79.1785
lclavicle 5.46658e-015 -1.59028e-014
lhumerus -34.9915 3.19872 89.0316
lradius 34.9378
lwrist -10.279
lhand -4.12161 -33.6439
lfingers 7.12502
lthumb 21.6372 -4.83288
rfemur -27.5682 10.8115 18.3072
rtibia 34.1807
rfoot -16.706 -21.5127
rtoes -10.4428
lfemur 1.32822 -11.6136 -35.0673
ltibia 26.5732
lfoot -23.1196 8.43454
ltoes -6.7491
2041
root 10.9434 15.2323 -11.1641 -3.11485 4.10505 3.76857
lowerback 7.34251 -0.497453 -3.9025
upperback -2.63031 -0.927998 2.02501
thorax -6.7983 -0.238227 4.45308
lowerneck -6.94904 -7.66759 -7.24859
upperneck 33.496 -17.2294 20.1799
head 15.7334 -6.2083 7.17596
rclavicle 2.55438e-014 -8.74653e-015
rhumerus -39.2826 0.680072 -82.542
rradius 30.8623
rwrist 19.5314
rhand -5.65312 -50.4788
rfingers 7.12502
rthumb 20.1658 -79.4521
lclavicle 2.55438e-014 -8.74653e-015
lhumerus -34.9061 3.67246 88.7105
lradius 34.0323
lwrist -11.1563
lhand -3.14456 -34.4676
lfingers 7.12502
lthumb 22.5752 -5.76752
rfemur -27.5368 11.8792 18.0799
rtibia 32.945
rfoot -16.6861 -22.5704
rtoes -10.0325
lfemur 1.43412 -11.4426 -34.9464
ltibia 26.7405
lfoot -23.1774 8.3197
ltoes -6.07064
2042
root 10.9326 15.2274 -11.0912 -3.07537 4.18708 3.67731
lowerback 7.42745 -0.522758 -3.83518
upperback -2.54626 -0.954144 2.07491
thorax -6.75482 -0.255586 4.47151
lowerneck -7.08834 -7.66788 -7.3176
upperneck 33.5917 -17.2285 20.1577
head 15.8215 -6.20642 7.18494
rclavicle -1.73937e-014 1.03368e-014
rhumerus -39.2115 0.654302 -82.4859
rradius 30.7383
rwrist 19.5621
rhand -5.93503 -50.5323
rfingers 7.12502
rthumb 19.8948 -79.534
lclavicle -1.73937e-014 1.03368e-014
lhumerus -34.8717 4.02907 88.5277
lradius 33.3877
lwrist -11.8544
lhand -2.00283 -34.2362
lfingers 7.12502
lthumb 23.6707 -5.67357
rfemur -27.4164 12.8745 17.8837
rtibia 31.7536
rfoot -16.9522 -23.6841
rtoes -9.08791
lfemur 1.62201 -11.2108 -34.7926
ltibia 26.8893
lfoot -23.2227 8.17849
ltoes -5.37801
2043
root 10.924 15.2208 -11.017 -3.03441 4.26741 3.69991
lowerback 7.56105 -0.570058 -3.85387
upperback -2.50931 -1.02283 2.08695
thorax -6.78464 -0.28811 4.50637
lowerneck -7.164 -7.61803 -7.34784
upperneck 33.7078 -17.1613 20.1315
head 15.884 -6.1753 7.20111
rclavicle -9.14409e-015 -9.54166e-015
rhumerus -39.1908 0.71189 -82.4721
rradius 30.6123
rwrist 19.5701
rhand -6.5754 -50.1711
rfingers 7.12502
rthumb 19.2791 -79.2355
lclavicle -9.14409e-015 -9.54166e-015
lhumerus -34.8807 4.35908 88.4149
lradius 32.6981
lwrist -12.7696
lhand -1.37088 -33.2519
lfingers 7.12502
lthumb 24.2767 -4.76902
rfemur -27.2944 13.8525 17.5261
rtibia 30.6121
rfoot -17.516 -24.7144
rtoes -7.08823
lfemur 1.83078 -11.0351 -34.7872
ltibia 27.0389
lfoot -23.3806 7.92412
ltoes -5.38659
2044
root 10.9145 15.2143 -10.9437 -2.89679 4.37086 3.73149
lowerback 7.54699 -0.602235 -3.83851
upperback -2.45114 -1.06697 2.03308
thorax -6.71079 -0.314964 4.44448
lowerneck -7.23096 -7.5694 -7.14619
upperneck 33.719 -17.1007 20.0735
head 15.861 -6.12294 7.14457
rclavicle 1.04362e-014 2.94201e-014
rhumerus -39.0481 0.52066 -82.4597
rradius 30.3931
rwrist 19.7691
rhand -7.68645 -49.5383
rfingers 7.12502
rthumb 18.2105 -78.7059
lclavicle 1.04362e-014 2.94201e-014
lhumerus -34.8881 4.44254 88.3503
lradius 32.0625
lwrist -13.9459
lhand -1.63439 -32.2881
lfingers 7.12502
lthumb 24.024 -3.77164
rfemur -27.3238 14.9283 17.0832
rtibia 29.5766
rfoot -18.5064 -25.7132
rtoes -3.59562
lfemur 1.93746 -11.0088 -34.7859
ltibia 27.1465
lfoot -23.526 7.78101
ltoes -6.10712
2045
root 10.9042 15.2076 -10.8718 -2.71367 4.4417 3.65911
lowerback 7.43702 -0.597999 -3.76297
upperback -2.39337 -1.04895 2.04357
thorax -6.58871 -0.313541 4.40626
lowerneck -7.05415 -7.52663 -7.08831
upperneck 33.5616 -17.0265 20.1557
head 15.725 -6.09213 7.17497
rclavicle 5.66536e-015 -3.18055e-015
rhumerus -38.8969 0.345826 -82.3516
rradius 30.1261
rwrist 20.0188
rhand -8.36455 -49.3839
rfingers 7.12502
rthumb 17.558 -78.611
lclavicle 5.66536e-015 -3.18055e-015
lhumerus -34.9615 4.42024 88.3342
lradius 31.6552
lwrist -14.9733
lhand -1.54425 -31.6332
lfingers 7.12502
lthumb 24.1104 -3.12817
rfemur -27.4814 15.984 16.7536
rtibia 28.6958
rfoot -19.5346 -26.7267
rtoes 0.0350789
lfemur 2.01645 -11.0157 -34.667
ltibia 27.1771
lfoot -23.5828 7.81095
ltoes -7.20909
2046
root 10.895 15.199 -10.7965 -2.61735 4.42165 3.70218
lowerback 7.4823 -0.585972 -3.78892
upperback -2.36638 -1.03595 2.05715
thorax -6.58686 -0.306282 4.43438
lowerneck -6.86887 -7.51894 -7.2587
upperneck 33.4554 -16.9958 20.2783
head 15.6549 -6.10616 7.2665
rclavicle 3.57812e-015 1.66979e-014
rhumerus -38.8828 0.397434 -82.2628
rradius 30.0818
rwrist 19.9564
rhand -6.42862 -50.7498
rfingers 7.12502
rthumb 19.4203 -79.8
lclavicle 3.57812e-015 1.66979e-014
lhumerus -35.1921 4.54223 88.2602
lradius 31.36
lwrist -15.7501
lhand -0.739272 -31.5092
lfingers 7.12502
lthumb 24.8821 -3.10861
rfemur -27.5544 17.0684 16.3367
rtibia 27.9429
rfoot -19.7918 -27.8114
rtoes 1.45931
lfemur 2.23228 -10.8942 -34.6954
ltibia 27.1761
lfoot -23.5921 7.91936
ltoes -8.01578
2047
root 10.8835 15.1882 -10.7233 -2.5011 4.46183 3.83688
lowerback 7.67619 -0.601016 -3.8741
upperback -2.39992 -1.07391 2.01946
thorax -6.72956 -0.317583 4.45348
lowerneck -6.98409 -7.58414 -7.34056
upperneck 33.5548 -17.0784 20.1979
head 15.7498 -6.14961 7.23537
rclavicle 9.74045e-015 3.18055e-015
rhumerus -38.9576 0.377994 -82.211
rradius 30.1635
rwrist 19.874
rhand -6.62397 -50.4508
rfingers 7.12502
rthumb 19.2324 -79.5198
lclavicle 9.74045e-015 3.18055e-015
lhumerus -35.373 4.83494 88.0926
lradius 30.8329
lwrist -16.6978
lhand -0.438843 -31.7974
lfingers 7.12502
lthumb 25.17 -3.43693
rfemur -27.6668 18.1944 15.7884
rtibia 27.2979
rfoot -19.4526 -29.1646
rtoes 1.12227
lfemur 2.40564 -10.7414 -34.7854
ltibia 27.1682
lfoot -23.5429 7.90876
ltoes -8.99394
2048
root 10.8702 15.1786 -10.6532 -2.28723 4.55683 3.8994
lowerback 7.84696 -0.609577 -3.92733
upperback -2.55609 -1.10016 1.9862
thorax -6.99162 -0.318502 4.45984
lowerneck -6.63122 -7.5472 -7.28097
upperneck 33.6158 -16.9899 20.0616
head 15.6434 -6.13646 7.19125
rclavicle 1.23246e-014 -6.36111e-015
rhumerus -39.1625 0.159304 -82.1121
rradius 30.0099
rwrist 20.1588
rhand -6.76629 -50.3072
rfingers 7.12502
rthumb 19.0956 -79.3897
lclavicle 1.23246e-014 -6.36111e-015
lhumerus -35.6759 5.13278 87.8812
lradius 30.2311
lwrist -17.8029
lhand -0.43786 -31.9749
lfingers 7.12502
lthumb 25.1709 -3.61455
rfemur -27.9349 19.1575 15.3142
rtibia 26.7884
rfoot -19.3983 -30.5109
rtoes 1.46197
lfemur 2.45531 -10.6829 -34.7628
ltibia 27.1335
lfoot -23.44 7.54256
ltoes -9.12021
2049
root 10.8573 15.1732 -10.5772 -2.10859 4.61956 3.94793
lowerback 7.77177 -0.60687 -3.99282
upperback -2.56206 -1.10239 1.96396
thorax -6.95396 -0.318264 4.47179
lowerneck -6.37783 -7.50738 -7.26509
upperneck 33.572 -16.9436 20.1417
head 15.5591 -6.12426 7.23867
rclavicle -2.04251e-014 1.51076e-014
rhumerus -39.1632 0.0132943 -82.1144
rradius 29.6845
rwrist 20.0614
rhand -7.50317 -49.9086
rfingers 7.12502
rthumb 18.3868 -79.0596
lclavicle -2.04251e-014 1.51076e-014
lhumerus -35.8999 5.27515 87.738
lradius 29.9181
lwrist -18.6294
lhand 0.257935 -31.4772
lfingers 7.12502
lthumb 25.8374 -3.21214
rfemur -28.1499 20.1006 14.888
rtibia 26.3831
rfoot -20.0427 -31.6662
rtoes 3.74455
lfemur 2.59439 -10.6823 -34.7568
ltibia 27.1071
lfoot -23.4122 7.0591
ltoes -7.8708
